<?xml version="1.0" standalone="no"?>
<!DOCTYPE svg PUBLIC "-//W3C//DTD SVG 20010904//EN"
 "http://www.w3.org/TR/2001/REC-SVG-20010904/DTD/svg10.dtd">
<svg version="1.0" xmlns="http://www.w3.org/2000/svg"
 width="665.000000pt" height="665.000000pt" viewBox="0 0 665.000000 665.000000"
 preserveAspectRatio="xMidYMid meet">
<metadata>
Created by potrace 1.16, written by Peter Selinger 2001-2019
</metadata>
<g transform="translate(0.000000,665.000000) scale(0.100000,-0.100000)"
fill="#000000" stroke="none">
<path d="M3654 6620 c-64 -9 -82 -19 -127 -69 l-36 -40 -158 1 c-144 1 -350
-9 -363 -17 -3 -2 -37 -6 -75 -9 -39 -3 -85 -10 -103 -15 -18 -6 -36 -10 -40
-10 -37 -2 -104 -15 -137 -25 -22 -8 -84 -24 -139 -37 -88 -20 -100 -21 -110
-7 -6 8 -31 25 -56 38 -128 66 -295 -19 -314 -159 l-7 -50 -87 -43 c-106 -51
-229 -123 -340 -197 -46 -31 -93 -61 -104 -68 -12 -6 -23 -15 -27 -20 -3 -5
-33 -29 -66 -53 -33 -24 -62 -46 -65 -49 -3 -3 -32 -29 -66 -58 -33 -28 -83
-72 -110 -97 -39 -37 -54 -45 -76 -41 -15 3 -42 7 -59 10 -16 3 -35 2 -42 -2
-7 -4 -17 -8 -23 -9 -39 -6 -87 -42 -120 -89 -33 -48 -36 -60 -36 -118 0 -37
6 -75 15 -93 15 -28 14 -30 -22 -74 -51 -62 -135 -188 -150 -227 -8 -18 -17
-33 -21 -33 -4 0 -22 -28 -40 -62 -96 -183 -110 -211 -110 -223 0 -8 -7 -21
-16 -29 -8 -9 -13 -16 -10 -16 3 0 -3 -17 -14 -37 -11 -21 -20 -45 -20 -55 0
-9 -4 -19 -9 -22 -5 -3 -26 -54 -46 -113 -43 -121 -43 -121 -70 -126 -46 -9
-95 -39 -122 -74 -35 -47 -61 -102 -58 -125 2 -9 6 -36 9 -59 7 -49 26 -82 72
-124 23 -21 30 -34 25 -45 -9 -16 -28 -165 -36 -285 -12 -162 -5 -571 10 -595
2 -3 6 -37 9 -75 3 -39 10 -83 15 -100 6 -24 4 -34 -13 -51 -60 -59 -75 -89
-82 -161 -3 -39 0 -70 10 -93 16 -39 80 -110 105 -115 50 -12 95 -35 97 -49 3
-19 38 -113 65 -172 11 -23 19 -47 19 -54 0 -6 6 -24 14 -38 8 -15 38 -76 67
-137 80 -166 186 -342 305 -502 9 -13 22 -30 29 -39 9 -13 9 -25 -3 -58 -22
-64 -18 -129 11 -168 13 -18 27 -41 30 -50 18 -50 157 -92 232 -70 27 8 34 4
71 -32 22 -23 57 -54 78 -71 51 -40 66 -55 66 -64 0 -4 11 -13 25 -19 14 -7
31 -16 38 -22 7 -5 39 -32 72 -60 33 -27 65 -50 72 -50 6 0 13 -3 15 -7 4 -11
84 -65 138 -94 25 -13 52 -31 62 -39 9 -8 80 -46 157 -85 120 -60 140 -73 140
-94 2 -73 74 -203 102 -185 4 2 11 -1 14 -6 12 -19 58 -32 112 -31 59 0 126
29 158 66 l20 24 110 -28 c61 -15 142 -33 180 -40 39 -7 84 -16 100 -21 29 -9
185 -28 295 -36 30 -2 137 -5 237 -6 l181 -1 29 -38 c23 -32 85 -78 103 -77 3
0 17 -3 32 -7 44 -11 133 13 177 48 38 31 71 83 71 111 0 16 22 26 56 26 13 0
41 6 61 14 21 7 72 21 113 31 41 9 93 24 115 32 22 8 49 17 59 19 23 4 115 39
172 65 23 11 47 19 54 19 6 0 24 6 38 14 15 8 72 36 127 62 55 27 134 67 175
91 l76 42 49 -25 c75 -38 159 -25 229 36 49 44 78 111 75 178 -2 41 1 56 17
70 11 9 49 42 84 72 88 74 318 309 325 331 3 10 14 21 24 24 10 3 23 16 29 29
6 14 18 33 26 43 90 110 195 259 209 296 5 14 17 17 60 16 35 -1 69 5 96 17
37 17 48 30 87 106 24 48 44 100 44 116 0 33 -47 131 -65 139 -11 3 -10 10 1
31 8 15 14 34 14 42 0 9 4 20 10 26 11 11 88 221 101 274 4 19 19 76 32 125
13 50 30 122 36 160 7 39 17 86 22 105 12 46 38 278 34 302 -3 11 2 18 12 18
28 0 84 41 109 81 21 35 24 49 24 141 -1 92 -3 106 -23 128 -23 26 -87 75 -99
75 -3 0 -9 3 -12 6 -6 6 -21 114 -32 223 -3 33 -7 62 -9 66 -2 3 -6 25 -10 49
-3 24 -10 53 -15 66 -5 13 -6 25 -3 28 3 4 -2 28 -11 54 -8 26 -24 84 -35 128
-11 44 -24 94 -31 110 -6 17 -14 39 -16 49 -4 24 -40 116 -65 172 -11 23 -19
48 -19 56 0 8 -7 23 -15 34 -20 26 -19 37 6 65 68 78 69 154 2 262 -19 29 -28
37 -43 32 -15 -5 -20 -2 -20 14 0 28 -35 44 -104 46 -58 3 -60 4 -89 46 -63
94 -112 164 -117 169 -3 3 -25 32 -49 65 -25 33 -47 62 -50 65 -3 3 -31 34
-61 70 -63 75 -239 251 -294 295 -51 41 -66 55 -66 65 0 4 -13 13 -30 20 -27
11 -30 17 -31 59 0 45 -4 75 -14 116 -5 25 -60 85 -97 108 -48 30 -108 38
-167 22 -29 -7 -59 -19 -67 -25 -9 -9 -18 -9 -26 -2 -26 20 -268 142 -283 142
-8 0 -15 5 -15 12 0 6 -3 9 -6 5 -3 -3 -23 3 -45 15 -21 11 -44 21 -51 22 -7
2 -29 10 -48 18 -54 24 -236 88 -249 88 -7 0 -40 9 -74 19 -34 11 -108 30
-164 42 -88 19 -102 25 -107 45 -12 48 -140 148 -182 143 -5 -1 -32 -5 -60 -9z
m171 -147 c31 -60 41 -70 78 -78 17 -4 37 -9 42 -10 6 -2 28 -6 50 -9 39 -6
79 -17 215 -57 36 -10 72 -19 81 -19 8 0 24 -7 35 -15 10 -8 27 -15 36 -15 17
0 32 -6 171 -69 37 -17 73 -31 78 -31 9 0 135 -61 189 -91 64 -36 90 -48 90
-42 0 4 6 -2 14 -12 18 -25 78 -25 106 0 16 15 35 19 80 18 51 -2 62 -6 93
-35 19 -18 39 -42 45 -53 15 -30 23 -93 13 -100 -6 -3 -9 -15 -8 -26 1 -19 29
-47 166 -169 85 -75 128 -117 184 -178 27 -29 53 -52 58 -52 5 0 9 -5 9 -12 0
-6 17 -29 38 -51 67 -71 82 -88 82 -93 0 -5 46 -69 72 -99 29 -34 107 -148
128 -187 11 -21 28 -39 38 -40 9 -1 43 -2 74 -3 31 -1 64 -7 72 -14 9 -7 21
-11 28 -9 16 6 58 -49 58 -74 0 -10 4 -18 9 -18 13 0 5 -88 -10 -108 -7 -9
-23 -28 -35 -42 -32 -38 -36 -68 -12 -114 12 -23 20 -42 20 -43 -1 -2 9 -27
21 -55 13 -29 29 -75 37 -103 7 -27 19 -59 27 -70 7 -11 13 -28 13 -38 0 -18
25 -113 55 -207 8 -25 16 -61 19 -80 2 -19 5 -35 6 -35 1 0 3 -15 5 -34 2 -19
7 -46 11 -60 4 -14 8 -35 9 -46 2 -11 6 -49 10 -85 11 -89 13 -110 14 -146 1
-37 31 -74 59 -74 12 0 26 -9 32 -19 5 -11 19 -23 30 -26 31 -10 63 -89 55
-136 -4 -21 -11 -39 -16 -39 -5 0 -11 -10 -14 -23 -6 -24 -81 -77 -108 -77
-20 0 -37 -30 -36 -62 0 -31 -9 -117 -16 -148 -3 -14 -7 -46 -10 -72 -2 -26
-7 -61 -10 -78 -3 -16 -7 -45 -11 -62 -11 -65 -36 -183 -41 -191 -2 -4 -7 -20
-9 -35 -3 -15 -14 -54 -25 -86 -10 -33 -19 -67 -19 -75 0 -9 -9 -33 -20 -54
-11 -20 -19 -38 -18 -40 3 -3 -16 -49 -55 -137 -34 -78 -37 -96 -16 -111 10
-7 19 -19 19 -27 0 -7 7 -15 15 -18 18 -7 35 -61 31 -99 -8 -63 -17 -81 -58
-119 -42 -37 -44 -38 -108 -34 -74 5 -101 -7 -120 -52 -7 -17 -17 -30 -23 -30
-6 0 -7 -3 -4 -6 7 -8 -44 -104 -55 -104 -5 0 -8 -6 -8 -14 0 -7 -11 -21 -24
-29 -13 -9 -40 -41 -60 -72 -21 -30 -47 -66 -59 -79 -12 -13 -47 -51 -77 -85
-69 -77 -113 -123 -178 -184 -29 -27 -52 -53 -52 -58 0 -5 -6 -9 -12 -9 -7 0
-48 -33 -90 -74 l-77 -73 4 -62 c5 -60 -3 -86 -32 -119 -7 -7 -13 -18 -13 -23
0 -5 -11 -11 -25 -15 -14 -3 -25 -10 -25 -16 0 -5 -4 -7 -8 -4 -4 2 -14 1 -21
-3 -17 -11 -108 13 -130 33 -20 18 -57 21 -66 6 -4 -6 -21 -17 -38 -25 -18 -8
-54 -28 -82 -45 -27 -17 -60 -35 -73 -40 -12 -5 -62 -28 -109 -51 -48 -23 -91
-42 -97 -43 -6 -2 -36 -14 -67 -28 -54 -25 -116 -43 -121 -36 -2 1 -19 -7 -39
-20 -20 -12 -44 -22 -53 -22 -20 0 -165 -39 -188 -51 -15 -7 -45 -14 -108 -22
-8 -2 -19 -5 -25 -8 -5 -4 -17 -5 -25 -4 -23 4 -42 -24 -43 -62 0 -7 -4 -13
-9 -13 -4 0 -8 -9 -8 -20 0 -11 -12 -27 -27 -37 -16 -10 -30 -20 -33 -24 -8
-11 -54 -23 -80 -21 -34 2 -100 25 -100 35 0 4 -11 18 -25 31 -14 13 -25 28
-25 34 0 15 -57 30 -100 26 -91 -10 -426 4 -500 21 -14 3 -45 7 -70 10 -48 5
-110 14 -141 21 -11 2 -27 6 -38 8 -10 2 -36 7 -57 10 -36 6 -64 13 -194 50
-55 16 -90 6 -122 -35 -13 -16 -30 -29 -38 -29 -8 0 -24 -7 -34 -15 -10 -8
-23 -12 -28 -9 -5 3 -23 8 -40 11 -80 12 -143 91 -132 164 7 42 -4 52 -126
114 -41 21 -82 42 -90 46 -61 35 -90 49 -90 45 0 -3 -12 6 -27 21 -28 26 -114
73 -133 73 -5 0 -18 7 -27 15 -10 8 -44 37 -75 64 -31 28 -70 58 -85 67 -37
24 -166 134 -251 215 -47 44 -68 52 -110 38 -51 -17 -82 -14 -131 12 -55 28
-86 92 -77 158 3 25 11 48 16 51 27 17 1 95 -45 135 -29 26 -144 207 -210 330
-21 39 -44 77 -51 86 -8 8 -14 19 -14 22 0 4 -21 51 -46 104 -26 53 -47 101
-49 107 -1 6 -12 34 -24 61 -13 28 -30 73 -38 100 -26 90 -52 135 -79 136 -33
2 -35 2 -71 18 -18 7 -33 17 -33 21 0 4 -11 20 -25 36 -14 16 -25 38 -26 49
-4 75 22 142 65 165 31 16 47 64 33 100 -5 14 -10 36 -12 50 -1 14 -5 48 -9
75 -12 96 -29 311 -27 350 7 231 15 361 25 415 4 19 9 51 11 70 2 19 7 59 10
87 7 50 6 53 -19 64 -14 7 -26 15 -26 19 0 4 -11 20 -25 36 -13 15 -23 30 -21
32 2 1 0 20 -5 40 -17 77 48 172 117 172 26 0 39 8 58 33 15 19 26 40 26 48 0
8 9 31 20 52 11 20 19 38 18 40 -3 3 21 62 63 155 16 35 29 68 29 73 0 9 61
135 91 189 34 60 49 90 44 90 -3 0 3 9 12 19 33 36 43 50 55 76 6 14 16 25 21
25 6 0 7 3 4 6 -7 8 44 104 56 104 4 0 7 4 7 10 0 5 20 30 45 56 35 36 45 53
45 80 0 19 -5 34 -11 34 -5 0 -8 4 -5 9 3 4 0 22 -6 39 -16 42 4 105 48 150
31 32 38 35 91 34 32 -1 72 -2 90 -4 25 -2 43 6 87 42 30 25 58 53 61 63 4 9
12 17 18 17 7 0 40 27 75 60 35 33 66 60 69 60 3 0 19 11 37 25 64 51 83 65
146 109 36 25 85 57 110 71 50 29 105 60 165 95 22 13 54 30 70 37 126 60 152
86 157 156 1 24 10 44 25 57 13 11 23 25 23 30 0 13 45 32 90 37 40 4 130 -33
130 -53 0 -21 30 -31 69 -24 58 12 164 41 183 51 9 5 34 11 55 15 58 9 78 12
78 14 0 1 16 3 35 4 19 2 46 6 60 11 14 5 34 10 45 10 11 1 40 5 65 8 162 22
343 30 502 23 l98 -4 30 34 c16 19 30 38 30 43 0 10 44 29 84 35 16 3 31 7 34
10 3 3 27 -7 55 -22 35 -19 56 -40 72 -69z"/>
<path d="M3468 6285 c-50 -26 -74 -63 -81 -122 -6 -59 42 -137 94 -150 62 -15
108 -7 150 27 40 32 43 32 55 15 8 -10 14 -22 14 -26 0 -16 94 -59 129 -58 81
1 141 68 141 155 0 48 -4 59 -36 93 -19 22 -43 40 -52 39 -9 0 -35 2 -57 5
-42 5 -105 -14 -105 -32 0 -6 -9 -15 -20 -21 -16 -9 -22 -7 -27 7 -13 38 -56
67 -121 82 -35 7 -48 5 -84 -14z"/>
<path d="M2533 6234 c-24 -9 -45 -24 -48 -35 -4 -10 -10 -19 -15 -19 -5 0 -13
-14 -18 -32 -9 -37 -24 -45 -44 -24 -43 43 -184 13 -214 -46 -8 -16 -17 -39
-19 -50 -6 -30 -9 -30 -35 -8 -21 18 -49 24 -106 22 -37 -1 -94 -43 -116 -85
-19 -37 -19 -45 -7 -95 10 -41 20 -60 47 -80 19 -14 39 -27 46 -28 6 -1 25 -4
41 -6 68 -11 146 49 162 125 l6 28 22 -21 c12 -11 30 -22 41 -24 10 -2 24 -5
29 -7 22 -7 93 12 113 29 12 11 31 40 42 66 12 25 23 46 25 46 3 0 19 -9 37
-20 18 -11 46 -20 63 -20 43 0 114 30 120 51 4 11 10 19 15 19 11 0 24 56 22
91 -3 45 -31 99 -56 109 -13 5 -27 14 -31 19 -9 15 -72 12 -122 -5z"/>
<path d="M4893 5783 c-31 -6 -85 -77 -93 -122 -13 -73 36 -149 108 -170 37
-11 53 -9 104 12 101 42 118 196 25 243 -17 9 -35 22 -39 29 -7 12 -63 16
-105 8z"/>
<path d="M1442 5683 c-13 -2 -26 -11 -29 -19 -3 -8 -10 -14 -17 -14 -6 -1 -23
-18 -37 -39 -23 -33 -26 -46 -23 -94 l5 -55 -28 7 c-40 11 -94 -9 -112 -41 -9
-15 -23 -29 -33 -31 -17 -5 -33 -73 -26 -118 3 -22 0 -24 -38 -22 -32 2 -48
-3 -68 -22 -15 -14 -30 -25 -34 -25 -4 0 -18 -20 -31 -44 -18 -36 -22 -53 -16
-86 7 -41 7 -42 -21 -39 -83 8 -162 -64 -171 -154 -5 -52 -5 -53 45 -99 50
-47 51 -47 110 -44 57 3 63 5 101 46 38 41 51 79 41 125 -9 45 -10 43 44 42
63 -1 93 18 127 82 23 44 26 68 14 109 -7 20 -4 22 26 22 58 0 100 18 135 57
30 34 33 44 34 99 0 46 4 63 15 68 8 3 15 1 15 -3 0 -5 8 -8 18 -6 9 2 25 4
34 4 31 2 95 73 108 120 17 62 -2 101 -76 161 -19 16 -71 22 -112 13z"/>
<path d="M3410 5673 c-31 -11 -71 -59 -82 -98 -17 -58 -16 -74 1 -129 20 -62
41 -77 79 -56 32 18 39 50 19 82 -22 34 -11 87 20 94 33 9 96 -21 116 -54 9
-15 27 -39 41 -54 14 -15 26 -31 26 -35 0 -4 10 -17 23 -28 13 -11 26 -28 30
-37 8 -24 77 -42 95 -25 7 8 19 69 28 141 8 71 17 132 20 137 2 5 -4 17 -16
29 -34 34 -87 22 -88 -20 0 -8 -3 -35 -6 -60 -4 -25 -7 -51 -8 -59 -1 -9 -8
-6 -20 10 -11 13 -31 38 -44 54 -14 17 -28 35 -32 40 -32 45 -153 86 -202 68z"/>
<path d="M2588 5588 c-21 -6 -38 -14 -38 -19 0 -5 -7 -9 -15 -9 -17 0 -48 -54
-37 -65 4 -4 -2 -5 -13 -2 -49 15 -75 14 -113 -3 -85 -38 -101 -117 -47 -223
21 -42 36 -59 66 -72 38 -18 39 -18 58 6 17 21 18 27 5 51 -8 15 -21 31 -29
35 -8 5 -19 22 -24 39 -25 89 67 104 102 16 19 -47 39 -57 78 -40 34 15 37 38
11 89 -21 41 -15 79 13 89 27 9 68 -3 71 -20 1 -8 9 -32 18 -53 10 -22 14 -48
10 -63 -9 -36 18 -54 63 -41 34 11 38 19 34 86 -4 72 -78 185 -127 195 -10 3
-26 6 -34 9 -8 3 -32 0 -52 -5z"/>
<path d="M4351 5239 c-21 -17 -23 -27 -22 -91 2 -91 16 -122 58 -126 24 -2 34
2 43 18 6 12 9 28 6 36 -7 17 -4 17 29 2 14 -6 25 -15 25 -20 0 -5 15 -15 33
-23 17 -7 42 -22 54 -32 54 -45 64 -53 92 -68 42 -21 46 -20 66 25 21 47 22
47 -65 104 -30 19 -62 42 -70 50 -8 8 -27 20 -42 27 -16 7 -28 15 -28 19 0 4
-14 13 -30 20 -17 7 -34 18 -38 25 -4 7 -25 22 -47 33 -40 20 -41 20 -64 1z"/>
<path d="M5658 5218 c-35 -19 -58 -38 -58 -48 0 -12 -7 -16 -28 -12 -18 2 -35
-2 -45 -12 -8 -9 -23 -16 -32 -16 -9 0 -30 -13 -46 -29 -32 -33 -31 -46 14
-118 13 -21 47 -86 76 -145 29 -60 57 -108 62 -108 5 0 9 -8 9 -17 0 -10 10
-34 22 -53 12 -19 23 -40 24 -46 1 -6 13 -29 27 -50 13 -22 35 -62 47 -89 12
-27 34 -67 48 -90 14 -22 25 -42 24 -45 -1 -3 6 -14 15 -25 9 -11 16 -21 15
-23 -2 -2 22 -57 36 -82 5 -8 16 -28 25 -45 17 -33 67 -59 74 -37 3 6 11 12
20 12 8 0 34 14 58 30 32 22 43 35 39 48 -5 15 -4 15 8 1 16 -19 27 -16 101
28 59 35 70 58 43 85 -14 15 -86 149 -86 162 0 4 -9 19 -20 33 -11 14 -20 34
-20 44 0 9 -4 19 -8 21 -11 4 -82 139 -82 154 0 7 -4 14 -8 16 -11 4 -82 136
-82 151 0 7 -10 23 -23 37 -13 14 -22 31 -19 39 2 7 0 16 -5 20 -14 9 -83 139
-83 156 0 8 -3 15 -8 15 -4 0 -16 16 -26 35 -11 19 -26 35 -35 34 -9 0 -42
-14 -73 -31z"/>
<path d="M1740 4970 c-30 -25 -37 -27 -50 -15 -14 12 -20 12 -48 -5 -36 -22
-39 -35 -16 -68 15 -22 14 -24 -10 -48 -14 -15 -28 -35 -31 -45 -4 -10 -12
-19 -20 -19 -8 0 -17 -9 -20 -20 -3 -11 -15 -25 -26 -30 -10 -6 -26 -25 -35
-42 -13 -26 -14 -35 -3 -55 18 -33 49 -38 127 -18 37 9 81 19 97 22 17 3 35 8
40 13 6 4 28 10 51 13 56 7 109 33 122 61 9 20 6 28 -22 57 -18 19 -49 48 -69
66 -21 17 -37 34 -37 38 0 4 11 16 25 27 14 11 25 23 25 28 0 7 -58 71 -63 70
-1 0 -18 -14 -37 -30z"/>
<path d="M5289 4889 c-66 -39 -90 -121 -56 -188 31 -64 66 -87 137 -91 14 -1
20 -4 13 -6 -6 -3 -19 -27 -28 -54 -16 -48 -16 -49 9 -98 29 -57 78 -92 131
-95 19 -1 35 -3 35 -4 0 -1 -10 -11 -22 -23 -68 -63 13 -230 112 -228 62 2
117 32 140 78 12 23 22 54 22 69 1 40 -38 108 -75 128 -34 19 -38 20 -76 22
-20 1 -21 3 -11 16 7 8 9 15 5 15 -5 0 -1 8 7 18 21 23 20 68 -2 117 -22 50
-67 83 -114 87 -36 2 -45 11 -25 23 6 4 8 12 6 19 -3 6 1 20 9 31 19 26 18 38
-11 99 -28 59 -54 76 -125 82 -33 3 -55 -2 -81 -17z"/>
<path d="M611 4632 c-7 -14 -15 -43 -26 -102 -1 -3 -4 -14 -8 -25 -6 -20 -12
-47 -23 -115 -3 -19 -10 -42 -14 -50 -4 -8 -11 -31 -14 -50 -3 -19 -13 -62
-22 -95 -8 -33 -18 -71 -20 -85 -3 -14 -9 -38 -14 -55 -9 -29 -20 -75 -26
-105 -3 -15 -11 -45 -34 -125 -6 -22 -12 -47 -14 -55 -1 -8 -5 -24 -9 -35 -4
-11 -9 -34 -11 -50 -3 -17 -7 -43 -11 -59 -10 -47 3 -54 142 -80 27 -6 43 13
50 56 3 18 9 41 14 51 5 9 8 17 5 17 -3 0 0 15 5 33 6 17 12 43 15 57 3 14 9
39 14 55 5 17 14 50 20 75 6 25 16 59 21 76 5 17 9 44 9 60 0 17 5 35 12 42 7
7 9 12 6 12 -4 0 -2 15 3 33 6 17 12 43 15 57 2 14 7 32 10 40 4 8 8 31 11 50
2 19 8 46 13 60 6 14 11 34 13 45 1 11 6 25 9 31 4 6 9 21 12 35 2 13 7 35 10
49 3 14 8 36 11 50 3 14 7 37 11 51 6 28 -6 36 -91 58 -57 15 -83 13 -94 -7z"/>
<path d="M5058 4555 c-21 -14 -38 -22 -38 -19 0 6 -30 -26 -60 -63 -19 -23
-11 -59 15 -71 27 -13 42 -4 77 47 18 25 77 43 101 30 9 -5 15 -23 15 -44 0
-29 -7 -40 -36 -63 -21 -15 -40 -31 -44 -37 -13 -17 -9 -43 8 -60 15 -14 19
-14 52 6 89 52 135 26 123 -71 0 -5 -10 -10 -20 -10 -11 0 -26 -6 -33 -14 -8
-7 -33 -17 -55 -21 -23 -3 -49 -12 -58 -19 -15 -11 -15 -15 -4 -34 30 -49 88
-43 188 18 56 35 108 128 81 145 -5 3 -7 12 -4 20 7 18 -72 99 -90 92 -7 -3
-19 -1 -27 4 -9 6 -10 9 -2 9 19 0 8 94 -13 123 -40 55 -121 69 -176 32z"/>
<path d="M3246 4563 c-2 -2 -26 -6 -52 -8 -72 -5 -178 -25 -189 -36 -5 -5 -20
-9 -33 -9 -13 0 -42 -9 -65 -19 -24 -11 -55 -23 -70 -26 -15 -4 -27 -11 -27
-16 0 -5 -8 -9 -19 -9 -10 0 -35 -11 -55 -25 -20 -14 -40 -25 -45 -25 -4 0
-16 -8 -27 -17 -11 -10 -45 -35 -75 -56 -48 -32 -121 -101 -216 -203 -13 -14
-28 -34 -34 -47 -7 -12 -18 -29 -26 -37 -15 -16 -56 -80 -59 -92 -1 -5 -2 -12
-3 -17 0 -5 -9 -17 -18 -27 -10 -9 -23 -31 -29 -48 -7 -17 -21 -55 -32 -84
-29 -76 -70 -247 -74 -312 -9 -157 3 -315 33 -435 18 -70 85 -242 99 -255 14
-13 40 -61 40 -73 0 -8 9 -22 20 -32 11 -10 20 -22 20 -27 0 -5 6 -15 13 -23
6 -7 21 -25 32 -41 19 -26 29 -39 82 -95 38 -43 92 -89 103 -89 5 0 10 -6 10
-13 0 -8 12 -19 28 -26 15 -7 34 -19 42 -27 26 -25 90 -64 106 -64 8 0 22 -9
31 -20 10 -11 23 -20 30 -20 7 0 34 -10 60 -21 81 -37 87 -39 108 -43 11 -2
47 -12 80 -22 78 -23 78 -23 160 -29 175 -13 398 4 456 35 10 6 26 10 35 10
17 0 133 42 165 59 8 5 40 22 70 37 65 34 169 105 169 116 0 4 6 8 13 8 6 0
46 34 87 75 97 96 110 111 154 176 20 30 43 63 51 74 8 10 15 25 15 31 0 7 7
19 15 27 8 8 21 32 29 53 7 22 24 64 36 94 11 30 23 62 25 70 2 8 8 30 14 48
5 17 8 32 5 32 -3 0 0 8 5 18 5 10 13 38 18 62 10 55 10 353 0 395 -4 17 -9
49 -12 72 -2 23 -10 52 -19 64 -8 12 -12 27 -10 33 3 7 -5 35 -17 62 -12 27
-23 54 -24 59 -3 11 -38 83 -74 150 -11 21 -30 49 -41 62 -11 13 -20 28 -20
33 0 6 -5 10 -11 10 -5 0 -8 4 -4 9 3 5 -4 12 -15 16 -11 3 -20 12 -20 20 0 7
-34 46 -75 87 -102 100 -114 110 -176 152 -30 20 -58 39 -64 43 -32 25 -216
106 -270 119 -29 7 -38 10 -55 17 -8 3 -29 8 -47 11 -17 2 -36 7 -41 10 -20
12 -305 30 -316 19z m314 -83 c11 -6 20 -9 20 -6 0 3 15 0 33 -5 17 -6 37 -11
42 -13 50 -11 133 -42 148 -54 9 -8 17 -12 17 -8 0 4 26 -7 58 -25 260 -147
440 -347 546 -606 15 -34 26 -71 26 -81 0 -10 5 -23 11 -29 6 -6 13 -28 15
-49 2 -22 9 -61 16 -89 13 -53 16 -295 5 -355 -29 -156 -63 -263 -120 -371
-74 -143 -187 -283 -292 -364 -27 -22 -61 -49 -74 -62 -13 -13 -27 -23 -32
-23 -4 0 -27 -13 -51 -29 -85 -56 -257 -118 -403 -144 -81 -14 -344 -16 -395
-2 -14 4 -44 11 -66 15 -67 14 -204 62 -204 71 0 5 -7 9 -15 9 -17 0 -122 55
-146 76 -9 8 -19 11 -22 7 -4 -3 -7 -2 -7 4 0 6 -19 23 -42 39 -24 16 -64 49
-90 74 -25 25 -54 52 -65 61 -25 23 -103 124 -140 184 -39 62 -113 221 -113
243 0 10 -7 30 -15 46 -8 15 -15 40 -15 55 0 14 -5 42 -10 61 -14 46 -19 94
-20 215 -1 119 12 228 38 320 6 22 12 45 13 50 0 6 5 18 11 28 5 10 11 27 13
38 2 11 11 26 19 35 9 8 16 24 16 33 0 10 7 24 15 31 8 7 15 19 15 26 0 8 27
53 60 102 121 174 276 308 454 392 106 50 215 90 246 90 14 0 41 5 60 10 19 6
73 13 120 16 47 4 86 7 87 8 7 6 216 -15 233 -24z"/>
<path d="M4777 4397 c-19 -8 -30 -21 -34 -39 -3 -15 -9 -28 -14 -28 -5 0 -9
-5 -9 -10 0 -6 -9 -29 -19 -51 l-19 -39 28 -15 c33 -17 59 -19 61 -5 1 6 3 15
4 20 1 6 3 15 4 20 3 23 21 7 42 -37 13 -27 29 -54 36 -61 7 -7 13 -20 13 -28
0 -8 11 -32 25 -54 14 -22 25 -43 25 -48 0 -4 7 -17 15 -29 13 -19 19 -20 45
-12 56 20 59 13 -111 334 -26 49 -51 90 -56 91 -4 1 -21 -3 -36 -9z"/>
<path d="M1125 4111 c-57 -19 -97 -58 -111 -106 -25 -85 -3 -144 68 -181 26
-13 54 -24 62 -24 8 0 17 -4 20 -9 8 -12 -18 -73 -27 -65 -6 6 -34 13 -119 30
-20 4 -29 0 -37 -15 -31 -56 -8 -75 133 -110 101 -25 111 -22 121 40 4 21 11
39 16 39 5 0 9 11 9 25 0 15 7 39 16 56 20 39 11 64 -29 80 -36 16 -38 16 -70
18 -53 3 -86 70 -51 105 28 28 63 30 115 6 27 -13 49 -27 49 -31 0 -4 8 -6 18
-5 21 3 43 64 31 87 -11 22 -66 47 -130 59 -57 11 -55 11 -84 1z"/>
<path d="M6005 3847 c-14 -11 -16 -35 -15 -187 0 -96 1 -182 1 -190 1 -8 1
-51 0 -95 0 -44 0 -89 0 -100 0 -11 0 -123 0 -250 -1 -126 1 -239 2 -250 3
-16 14 -21 57 -25 71 -8 111 -4 120 10 6 9 13 9 31 -2 21 -12 62 -15 141 -9
16 1 35 36 29 56 -2 6 -2 46 -1 90 1 44 1 87 1 95 -2 27 -3 153 -2 225 4 363
-1 625 -12 632 -7 4 -44 8 -84 9 -55 1 -73 -2 -78 -13 -4 -13 -8 -13 -21 -2
-22 18 -146 22 -169 6z"/>
<path d="M5378 3585 c-2 -3 -22 -7 -43 -11 -35 -5 -106 -48 -105 -63 1 -3 12
-19 25 -36 23 -28 24 -29 44 -11 25 23 115 34 126 16 11 -18 14 -70 4 -70 -5
0 -9 -9 -9 -20 0 -11 -13 -32 -30 -46 -16 -15 -32 -35 -35 -45 -4 -11 -10 -19
-15 -19 -5 0 -32 -23 -60 -52 -44 -46 -51 -57 -48 -88 l3 -35 153 -2 c83 -2
152 -2 153 0 0 1 2 21 5 44 l6 43 -44 0 c-86 0 -111 -1 -119 -6 -4 -2 -10 0
-13 5 -8 12 4 42 14 36 7 -4 28 17 100 104 11 13 17 27 15 31 -3 5 0 10 7 12
6 2 13 17 14 34 1 16 3 34 4 39 6 27 -2 57 -20 72 -11 10 -20 23 -20 30 0 7
-19 17 -42 23 -24 6 -48 13 -55 15 -6 2 -13 2 -15 0z"/>
<path d="M5723 3577 c-6 -6 -22 -22 -36 -34 -61 -56 -43 -189 30 -222 l28 -13
-44 -39 c-42 -39 -43 -41 -45 -107 -1 -76 17 -111 69 -134 39 -17 137 -17 143
0 2 6 8 12 13 12 11 0 45 33 57 57 14 27 5 126 -13 139 -8 6 -15 15 -15 20 0
5 -12 17 -27 26 l-27 16 31 28 c50 47 64 83 54 145 -7 42 -16 60 -43 84 -30
28 -41 32 -99 33 -40 1 -68 -3 -76 -11z"/>
<path d="M5059 3572 c-14 -2 -42 -19 -62 -38 -21 -18 -41 -34 -45 -34 -5 0
-17 -9 -27 -20 -16 -18 -16 -20 -1 -35 9 -9 16 -20 16 -25 0 -4 8 -11 17 -15
12 -4 25 2 40 20 21 23 29 20 24 -9 -1 -5 -2 -32 -1 -60 1 -28 1 -92 0 -142
-1 -99 5 -112 52 -112 19 0 30 7 34 22 6 16 9 373 5 432 -1 15 -19 20 -52 16z"/>
<path d="M385 3178 c-22 -6 -45 -12 -52 -14 -19 -5 -27 -52 -15 -92 7 -21 23
-86 38 -147 30 -128 30 -127 44 -180 6 -22 13 -55 16 -74 2 -18 8 -41 13 -50
5 -9 12 -34 16 -56 5 -22 9 -42 10 -45 11 -36 97 -394 98 -407 1 -21 52 -36
78 -22 13 6 35 12 49 11 14 0 36 7 48 17 l23 17 -16 70 c-9 38 -18 76 -20 84
-1 8 -8 35 -15 60 -7 25 -14 56 -16 70 -3 14 -9 36 -14 50 -5 14 -23 84 -40
155 -61 254 -72 300 -78 315 -3 8 -6 24 -8 35 -2 11 -8 40 -15 65 -7 25 -19
69 -26 98 -14 49 -16 52 -46 51 -18 -1 -50 -6 -72 -11z"/>
<path d="M1179 3049 c-108 -28 -148 -115 -109 -233 17 -51 71 -89 129 -88 58
1 75 4 95 21 14 12 16 10 16 -13 0 -39 -44 -82 -90 -90 -63 -10 -80 -41 -47
-83 27 -36 154 7 196 65 30 43 44 110 37 182 -7 69 -25 130 -38 130 -4 0 -8 8
-8 19 0 10 -19 34 -42 53 -44 36 -94 49 -139 37z"/>
<path d="M787 2854 c-1 -2 -14 -5 -27 -7 -36 -7 -60 -18 -60 -27 0 -5 -7 -16
-16 -24 -28 -29 -36 -99 -17 -149 18 -43 93 -98 126 -91 12 2 38 7 57 10 19 3
43 15 52 27 10 12 25 30 34 39 32 34 18 138 -24 179 -36 34 -109 59 -125 43z"/>
<path d="M4960 2722 c-19 -1 -42 -6 -50 -9 -8 -3 -26 -8 -40 -10 -48 -7 -52
-11 -45 -45 9 -42 21 -49 65 -41 l34 6 -17 -24 c-10 -13 -25 -39 -33 -58 -9
-19 -22 -40 -30 -48 -8 -8 -14 -21 -14 -30 0 -8 -9 -26 -20 -40 -11 -14 -20
-32 -20 -40 0 -8 -6 -21 -14 -29 -8 -7 -13 -21 -12 -31 3 -18 51 -36 77 -28
17 6 39 46 39 70 0 8 4 15 9 15 5 0 16 17 25 38 10 20 31 62 48 92 17 30 31
59 32 65 1 5 9 21 18 35 9 14 18 32 20 40 2 8 7 18 12 21 15 11 -2 39 -23 39
-11 0 -21 3 -23 8 -1 4 -19 6 -38 4z"/>
<path d="M5256 2563 c-3 -3 -22 -7 -43 -9 -21 -2 -50 -9 -66 -15 -24 -10 -27
-16 -22 -38 8 -35 33 -53 55 -41 37 20 40 -16 4 -59 -14 -17 -23 -34 -20 -39
3 -4 -6 -21 -20 -37 -13 -15 -24 -36 -24 -45 0 -10 -6 -23 -14 -29 -8 -6 -16
-22 -19 -34 -2 -12 -8 -30 -12 -39 -5 -13 2 -21 30 -35 36 -17 37 -17 51 2 8
10 14 27 14 37 0 10 4 18 9 18 9 0 22 27 27 57 1 7 9 20 18 29 9 8 17 20 17
25 1 5 2 14 3 19 0 6 6 14 12 18 14 9 76 132 67 132 -4 0 4 10 16 21 22 21 23
22 4 40 -18 19 -76 33 -87 22z"/>
<path d="M5880 2550 c-11 -11 -20 -28 -20 -39 0 -10 -7 -24 -15 -31 -8 -7 -15
-20 -15 -30 0 -9 -9 -27 -20 -40 -11 -13 -20 -31 -20 -42 0 -10 -9 -26 -20
-35 -11 -10 -20 -25 -20 -34 0 -9 -9 -26 -20 -39 -11 -13 -20 -30 -20 -38 0
-9 -7 -23 -15 -32 -9 -10 -18 -28 -20 -40 -2 -13 -14 -31 -25 -42 -11 -10 -20
-26 -20 -35 0 -9 -7 -24 -15 -33 -9 -10 -17 -27 -20 -39 -2 -12 -11 -28 -19
-37 -15 -14 -20 -28 -18 -45 1 -4 -8 -15 -18 -24 -11 -10 -20 -26 -20 -35 0
-9 -9 -27 -20 -40 -11 -13 -20 -31 -20 -40 0 -9 -9 -25 -20 -35 -12 -10 -19
-24 -16 -30 2 -7 -6 -24 -18 -38 -30 -34 -30 -90 -1 -96 11 -2 31 -12 44 -22
13 -11 32 -19 42 -19 10 0 21 -5 24 -10 4 -6 11 -8 16 -4 5 3 18 -5 29 -18 11
-13 19 -20 20 -15 0 4 9 -2 20 -13 11 -11 29 -20 40 -20 11 0 20 -4 20 -9 0
-5 7 -11 15 -15 17 -6 65 41 65 65 0 9 8 27 19 40 10 13 21 34 25 46 4 11 13
27 21 33 8 7 15 20 15 30 0 9 9 27 20 40 11 13 20 31 20 40 0 9 9 25 20 35 11
10 20 26 20 35 0 9 9 27 20 40 11 13 20 30 20 38 0 9 7 23 15 32 9 10 18 28
20 41 3 13 11 29 18 34 8 6 17 22 20 37 4 15 14 33 22 42 8 8 15 21 15 29 0 8
9 24 20 37 11 13 20 31 20 40 0 9 9 25 20 35 11 10 20 26 20 35 0 9 9 27 20
40 11 13 20 31 20 41 0 10 7 25 16 33 35 35 26 53 -44 92 -37 20 -74 37 -82
37 -8 0 -24 8 -35 18 -11 10 -37 25 -57 33 -20 9 -39 20 -43 26 -10 16 -44 11
-65 -10z"/>
<path d="M5442 2329 c-46 -9 -69 -30 -102 -91 -50 -93 39 -211 155 -207 64 2
142 107 129 174 -3 19 -10 35 -15 35 -5 0 -9 9 -9 20 0 14 -16 28 -57 48 -49
24 -64 27 -101 21z"/>
<path d="M1578 2098 c-20 -24 -23 -55 -9 -90 17 -43 24 -63 28 -83 2 -11 17
-60 34 -110 17 -49 33 -101 35 -115 8 -42 53 -98 73 -93 11 3 53 37 94 76 42
40 84 77 94 83 10 6 25 23 33 37 13 24 13 27 -9 46 -33 29 -46 26 -86 -14 -19
-19 -35 -31 -35 -27 0 3 -13 -8 -29 -26 -17 -17 -34 -32 -38 -32 -5 0 -17 34
-28 76 -10 41 -22 77 -27 80 -4 3 -8 15 -8 28 0 12 -4 26 -8 32 -5 5 -15 35
-22 68 -20 86 -55 110 -92 64z"/>
<path d="M4445 1891 c-19 -38 -11 -59 29 -69 l31 -8 -30 -19 c-17 -11 -32 -22
-35 -25 -6 -7 -115 -81 -141 -96 -59 -34 -73 -68 -41 -97 25 -23 53 -21 82 6
34 29 118 87 129 87 4 0 16 8 25 19 9 10 48 38 86 62 38 24 71 50 74 57 9 20
-14 60 -38 65 -11 3 -46 14 -76 26 -71 27 -77 27 -95 -8z"/>
<path d="M832 1833 c-19 -7 -112 -100 -112 -112 0 -12 28 -41 41 -41 5 0 8 -4
7 -8 -3 -8 69 -94 132 -161 14 -14 55 -60 90 -101 36 -41 76 -87 90 -102 14
-15 41 -46 60 -68 19 -23 61 -69 93 -102 31 -34 57 -64 57 -68 0 -4 11 -16 25
-26 14 -10 25 -24 25 -30 0 -6 14 -21 30 -34 17 -13 30 -29 30 -35 0 -7 14
-18 30 -25 26 -11 33 -10 48 4 9 9 36 34 59 56 42 39 53 60 33 60 -5 0 -9 4
-7 8 1 5 -11 22 -28 39 -16 17 -55 59 -85 94 -56 65 -89 102 -150 169 -19 21
-57 64 -85 95 -27 32 -66 75 -85 96 -19 21 -46 52 -60 69 -14 16 -47 54 -75
84 -27 30 -68 75 -90 100 -40 45 -47 49 -73 39z"/>
<path d="M1238 1822 c-16 -2 -28 -8 -28 -13 0 -5 -5 -9 -12 -9 -7 0 -27 -17
-45 -37 -29 -34 -32 -44 -31 -93 1 -51 4 -58 44 -97 24 -24 53 -44 64 -44 11
-1 29 -3 40 -4 11 -1 25 -3 30 -4 6 0 10 -27 10 -60 0 -55 3 -61 40 -100 22
-22 43 -41 47 -42 5 0 17 -3 28 -5 34 -9 79 -4 100 11 68 48 74 58 81 128 4
45 3 67 -4 67 -6 0 -19 13 -28 29 -23 38 -83 65 -128 58 l-34 -5 4 54 c5 58
-5 82 -57 134 -28 27 -71 39 -121 32z"/>
<path d="M4650 1644 c-45 -14 -140 -73 -140 -86 0 -5 -6 -8 -14 -8 -7 0 -21
-11 -29 -24 -9 -13 -22 -29 -29 -37 -17 -18 -38 -79 -38 -110 1 -60 94 -143
150 -134 83 14 121 27 139 49 7 9 20 16 28 16 7 0 16 7 19 15 4 8 11 15 18 15
15 1 57 46 84 91 48 80 12 185 -74 215 -47 16 -56 16 -114 -2z m113 -121 c8
-28 6 -35 -25 -65 -58 -56 -85 -76 -132 -98 -73 -33 -107 -24 -108 28 -1 24 8
41 35 67 20 19 41 35 47 35 5 0 10 4 10 8 0 5 19 18 43 29 89 43 117 43 130
-4z"/>
<path d="M2438 1497 c-7 -7 -25 -21 -41 -31 -15 -10 -30 -30 -34 -45 -3 -14
-11 -29 -16 -33 -15 -9 -14 -131 1 -136 6 -2 12 -10 12 -18 0 -20 90 -62 120
-57 14 3 31 6 38 7 7 1 17 7 24 14 8 8 16 5 29 -13 11 -13 19 -27 19 -33 0
-13 74 -44 104 -44 31 -1 106 58 106 82 0 10 5 20 11 22 14 5 19 86 7 118 -11
29 -57 72 -69 64 -5 -3 -9 0 -9 7 0 8 -17 10 -60 5 -42 -5 -60 -4 -60 4 0 23
-41 64 -81 82 -49 21 -83 23 -101 5z"/>
<path d="M5249 1429 c-7 -10 -19 -19 -25 -19 -6 0 -27 -13 -45 -30 -19 -16
-38 -30 -42 -30 -7 0 -20 -9 -52 -37 -7 -7 -18 -13 -24 -13 -6 0 -21 -11 -33
-25 -12 -14 -25 -25 -30 -25 -4 0 -45 -26 -91 -57 -45 -31 -102 -70 -127 -87
-25 -16 -47 -33 -50 -36 -3 -3 -23 -17 -45 -30 -22 -13 -44 -30 -48 -37 -4 -7
-14 -13 -21 -13 -7 0 -21 -8 -32 -17 -10 -10 -52 -40 -91 -66 -94 -62 -107
-80 -85 -116 42 -65 78 -110 89 -111 7 0 10 -7 7 -15 -4 -8 -1 -15 5 -15 6 0
10 -4 8 -8 -2 -9 35 -63 66 -94 18 -19 47 -24 47 -9 0 5 10 13 22 17 21 6 115
72 146 102 7 6 19 12 27 12 7 0 15 4 17 8 3 7 83 65 136 97 9 6 27 20 41 33
14 12 30 22 36 22 6 0 22 11 37 25 15 14 31 25 35 25 5 0 20 11 35 25 15 14
33 25 41 25 8 0 23 11 33 25 10 14 24 25 30 25 6 0 22 9 35 21 13 11 38 28 54
36 17 9 37 24 46 34 9 10 18 17 21 14 6 -6 78 60 78 72 0 6 -11 23 -25 39 -14
16 -25 32 -25 36 0 4 -13 21 -30 36 -16 16 -30 36 -30 44 0 8 -9 25 -20 38
-11 13 -20 26 -20 29 0 14 -50 62 -67 66 -11 2 -26 -5 -34 -16z"/>
<path d="M3589 1356 c-54 -36 -79 -119 -56 -183 7 -19 5 -23 -11 -23 -10 0
-31 10 -46 23 -20 18 -28 36 -34 82 -6 55 -9 60 -33 63 -77 9 -81 -126 -6
-205 32 -34 92 -58 167 -68 57 -7 172 19 211 47 89 66 91 193 4 259 -48 37
-144 39 -196 5z"/>
<path d="M2110 1113 c-62 -17 -93 -39 -110 -77 -34 -74 -30 -122 13 -169 35
-39 115 -73 131 -57 6 6 20 10 31 10 12 0 31 9 42 19 21 20 21 20 28 -2 21
-64 37 -85 84 -105 25 -12 53 -22 61 -23 21 -3 71 12 96 28 28 18 44 2 44 -42
0 -40 119 -101 171 -88 47 12 86 52 104 104 15 49 13 109 -5 109 -4 0 -10 10
-14 23 -8 32 -98 71 -144 63 -19 -3 -43 -13 -53 -22 -23 -21 -49 -11 -49 19 0
13 -12 37 -27 54 -51 55 -162 64 -214 17 -18 -16 -19 -16 -19 1 0 44 -35 93
-80 113 -61 27 -73 30 -90 25z"/>
<path d="M4029 896 c-2 -3 -18 -7 -34 -10 -25 -5 -75 -48 -75 -65 0 -3 -4 -12
-9 -20 -7 -11 -13 -10 -32 8 -44 41 -79 54 -137 49 -49 -4 -58 -9 -88 -44 -19
-21 -34 -43 -34 -47 0 -5 -22 7 -50 27 -47 34 -54 36 -106 30 -46 -4 -62 -11
-90 -38 -19 -18 -34 -40 -34 -50 0 -20 -9 -20 -29 -1 -47 44 -78 62 -101 58
-14 -2 -39 -5 -57 -6 -63 -6 -119 -89 -108 -160 14 -86 66 -131 151 -131 46 0
124 44 124 71 0 27 29 24 71 -6 74 -54 164 -38 210 38 22 36 34 39 51 11 7
-11 19 -20 26 -20 7 0 21 -7 29 -16 12 -12 27 -14 61 -9 71 11 90 21 120 70
27 43 28 44 42 24 28 -40 87 -62 146 -54 47 6 56 11 88 52 31 40 35 50 32 98
-3 58 -44 125 -77 125 -10 0 -21 5 -24 10 -6 10 -57 14 -66 6z"/>
<path d="M1806 851 c-9 -10 -18 -27 -21 -39 -2 -11 -10 -33 -17 -49 -28 -56
-22 -66 62 -98 25 -9 53 -21 62 -26 10 -5 24 -9 33 -9 8 0 29 -6 47 -14 89
-38 122 -51 123 -47 0 2 19 -6 43 -18 23 -12 42 -19 42 -16 0 3 11 -2 24 -10
13 -9 32 -18 42 -20 27 -6 104 -34 126 -46 11 -6 27 -12 36 -14 9 -2 42 -13
72 -25 30 -12 67 -25 81 -30 14 -4 40 -15 57 -24 18 -9 32 -14 32 -11 0 3 12
-1 28 -9 47 -24 90 -29 107 -12 8 8 15 19 15 24 0 5 9 29 20 53 11 24 20 51
20 61 0 14 -35 34 -76 43 -6 2 -27 10 -45 18 -45 20 -144 51 -145 46 -1 -2
-10 4 -20 13 -11 9 -32 20 -49 24 -16 4 -32 10 -35 14 -3 4 -23 12 -45 17 -22
6 -65 21 -95 33 -30 11 -62 23 -72 25 -9 2 -30 11 -47 19 -17 9 -32 16 -33 15
-2 0 -16 5 -33 11 -16 7 -37 13 -45 15 -8 2 -37 14 -65 26 -27 13 -61 25 -75
27 -14 2 -38 11 -55 21 -48 30 -80 33 -99 12z"/>
<path d="M4045 559 c-33 -5 -78 -11 -100 -14 -22 -3 -58 -7 -80 -11 -22 -3
-66 -7 -98 -10 -33 -2 -63 -7 -69 -10 -5 -3 -31 -8 -56 -9 -69 -5 -153 -14
-182 -19 -14 -2 -77 -9 -140 -16 -63 -7 -137 -18 -165 -25 l-50 -13 1 -76 c2
-93 13 -111 63 -100 20 4 54 8 76 10 22 2 112 12 200 24 88 12 180 22 205 24
25 2 63 6 85 10 93 15 109 17 168 22 34 2 73 7 87 10 14 3 49 7 77 9 29 2 63
7 75 11 13 4 32 8 43 8 18 1 20 8 19 71 0 39 -6 80 -13 93 -13 25 -38 26 -146
11z"/>
</g>
</svg>
